<svg width="24" height="24" viewBox="0 0 24 24" fill="none" xmlns="http://www.w3.org/2000/svg">
<path fill-rule="evenodd" clip-rule="evenodd" d="M2.80379 8.35342C2.52364 10.9563 2.53613 13.9583 2.92595 16.5506C3.14165 17.985 4.31232 19.0847 5.75739 19.2103L7.26762 19.3416C10.4167 19.6153 13.5835 19.6153 16.7326 19.3416L18.2428 19.2103C19.6879 19.0847 20.8585 17.985 21.0742 16.5506C21.4641 13.9583 21.4766 10.9565 21.1964 8.35357C21.1602 8.05181 21.1195 7.75046 21.0742 7.44961C20.8585 6.01522 19.6879 4.91557 18.2428 4.78996L16.7326 4.65867C13.5835 4.38493 10.4167 4.38493 7.26762 4.65867L5.75739 4.78996C4.31232 4.91557 3.14165 6.01522 2.92595 7.44961C2.88072 7.75041 2.84 8.05171 2.80379 8.35342ZM7.39752 6.15304C10.4601 5.88681 13.5401 5.88681 16.6027 6.15304L18.1129 6.28432C18.8672 6.34989 19.4783 6.92391 19.5909 7.67267C19.6026 7.75042 19.614 7.82822 19.6251 7.90604L14.064 10.9955C12.7805 11.7086 11.2197 11.7086 9.93608 10.9955L4.37514 7.90608C4.3862 7.82824 4.39758 7.75043 4.40928 7.67267C4.52187 6.92391 5.13296 6.34989 5.88729 6.28432L7.39752 6.15304ZM19.8086 9.52001C20.0026 11.7878 19.93 14.0726 19.5909 16.3276C19.4783 17.0763 18.8672 17.6503 18.1129 17.7159L16.6027 17.8472C13.5401 18.1134 10.4601 18.1134 7.39753 17.8472L5.88729 17.7159C5.13296 17.6503 4.52187 17.0763 4.40928 16.3276C4.07019 14.0726 3.99763 11.7878 4.19159 9.52005L9.20762 12.3067C10.9442 13.2715 13.0559 13.2715 14.7925 12.3067L19.8086 9.52001Z" fill="#717171"/>
</svg>
