<svg xmlns="http://www.w3.org/2000/svg" version="1.1" xmlns:xlink="http://www.w3.org/1999/xlink" xmlns:svgjs="http://svgjs.dev/svgjs" width="2000" height="1247" viewBox="0 0 2000 1247"><g transform="matrix(1,0,0,1,-1.2121212121211329,0.504858299595071)"><svg viewBox="0 0 396 247" data-background-color="#dedede" preserveAspectRatio="xMidYMid meet" height="1247" width="2000" xmlns="http://www.w3.org/2000/svg" xmlns:xlink="http://www.w3.org/1999/xlink"><g id="tight-bounds" transform="matrix(1,0,0,1,0.2400000000000091,-0.09999999999999432)"><svg viewBox="0 0 395.52 247.2" height="247.2" width="395.52"><g><svg></svg></g><g><svg viewBox="0 0 395.52 247.2" height="247.2" width="395.52"><g transform="matrix(1,0,0,1,75.54432,73.48226362038665)"><svg viewBox="0 0 244.43135999999998 100.2354727592267" height="100.2354727592267" width="244.43135999999998"><g><svg viewBox="0 0 244.43135999999998 100.2354727592267" height="100.2354727592267" width="244.43135999999998"><g><svg viewBox="0 0 244.43135999999998 100.2354727592267" height="100.2354727592267" width="244.43135999999998"><g><svg viewBox="0 0 244.43135999999998 100.2354727592267" height="100.2354727592267" width="244.43135999999998"><g><svg viewBox="0 0 244.43135999999998 100.2354727592267" height="100.2354727592267" width="244.43135999999998"><g><svg viewBox="0 0 244.43135999999998 100.2354727592267" height="100.2354727592267" width="244.43135999999998"><g transform="matrix(1,0,0,1,0,0)"><svg width="244.43135999999998" viewBox="0.65 -35 85.35 35" height="100.2354727592267" data-palette-color="#363636"><path d="M33 0L27.25 0 16.75-14.45 6.4 0 0.65 0 13.8-17.95 1.45-35 7.15-35 16.95-21.55 26.65-35 32.1-35 19.75-18.1 33 0ZM52.35 0L52.35-35 67.09-35Q72.65-35 76.95-32.8 81.25-30.6 83.62-26.63 86-22.65 86-17.5L86-17.5Q86-12.35 83.62-8.38 81.25-4.4 76.95-2.2 72.65 0 67.09 0L67.09 0 52.35 0ZM57.35-4.35L66.8-4.35Q71.05-4.35 74.27-6 77.5-7.65 79.25-10.63 81-13.6 81-17.5L81-17.5Q81-21.4 79.25-24.38 77.5-27.35 74.27-29 71.05-30.65 66.8-30.65L66.8-30.65 57.35-30.65 57.35-4.35Z" opacity="1" transform="matrix(1,0,0,1,0,0)" fill="#363636" class="undefined-text-0" data-fill-palette-color="primary" id="text-0"></path></svg></g></svg></g></svg></g></svg></g></svg></g></svg></g></svg></g><g><path d="M0 123.6c0-68.262 55.338-123.6 123.6-123.6 45.688 0 85.586 24.789 106.978 61.651l-5.26 0c-20.91-34.26-58.643-57.131-101.718-57.131-65.766 0-119.08 53.314-119.08 119.08 0 65.766 53.314 119.08 119.08 119.08 43.075 0 80.807-22.871 101.718-57.131l5.26 0c-21.392 36.862-61.29 61.651-106.978 61.651-68.262 0-123.6-55.338-123.6-123.6z" fill="#374151" stroke="transparent" data-fill-palette-color="tertiary"></path></g></svg></g><defs></defs></svg><rect width="395.52" height="247.2" fill="none" stroke="none" visibility="hidden"></rect></g></svg></g></svg>