<svg xmlns="http://www.w3.org/2000/svg" version="1.1" xmlns:xlink="http://www.w3.org/1999/xlink" xmlns:svgjs="http://svgjs.dev/svgjs" width="2000" height="1247" viewBox="0 0 2000 1247"><g transform="matrix(1,0,0,1,-1.2121212121212466,0.504858299595071)"><svg viewBox="0 0 396 247" data-background-color="#dedede" preserveAspectRatio="xMidYMid meet" height="1247" width="2000" xmlns="http://www.w3.org/2000/svg" xmlns:xlink="http://www.w3.org/1999/xlink"><g id="tight-bounds" transform="matrix(1,0,0,1,0.2400000000000091,-0.09999999999999432)"><svg viewBox="0 0 395.52 247.2" height="247.2" width="395.52"><g><svg></svg></g><g><svg viewBox="0 0 395.52 247.2" height="247.2" width="395.52"><g transform="matrix(1,0,0,1,75.54432,67.06816127236581)"><svg viewBox="0 0 244.43135999999998 113.06367745526838" height="113.06367745526838" width="244.43135999999998"><g><svg viewBox="0 0 244.43135999999998 113.06367745526838" height="113.06367745526838" width="244.43135999999998"><g><svg viewBox="0 0 244.43135999999998 113.06367745526838" height="113.06367745526838" width="244.43135999999998"><g><svg viewBox="0 0 244.43135999999998 113.06367745526838" height="113.06367745526838" width="244.43135999999998"><g><svg viewBox="0 0 244.43135999999998 113.06367745526838" height="113.06367745526838" width="244.43135999999998"><g><svg viewBox="0 0 244.43135999999998 113.06367745526838" height="113.06367745526838" width="244.43135999999998"><g transform="matrix(1,0,0,1,0,0)"><svg width="244.43135999999998" viewBox="0.8500000238418579 -34.900001525878906 75.45000457763672 34.900001525878906" height="113.06367745526838" data-palette-color="#374151"><path d="M0.85 0L0.85-1.75 3.95-1.75 14.8-17.3 4.3-33.15 1.2-33.15 1.2-34.9 12.2-34.9 12.2-33.15 7.95-33.15 16.8-19.65 16.95-19.65 25.95-33.15 21.95-33.15 21.95-34.9 31.6-34.9 31.6-33.15 28.5-33.15 18-18.05 28.9-1.75 32-1.75 32 0 20.95 0 20.95-1.75 25.2-1.75 16.1-15.65 15.9-15.65 6.55-1.75 10.55-1.75 10.55 0 0.85 0ZM47.1 0L47.1-1.75 51.05-1.75 51.05-33.15 47.1-33.15 47.1-34.9 61.1-34.9Q68.25-34.9 72.27-30.55 76.3-26.2 76.3-17.45L76.3-17.45Q76.3-8.7 72.27-4.35 68.25 0 61.1 0L61.1 0 47.1 0ZM54.1-33.05L54.1-1.85 60.85-1.85Q63.8-1.85 66.05-2.8 68.3-3.75 69.82-5.48 71.35-7.2 72.12-9.63 72.9-12.05 72.9-15L72.9-15 72.9-19.9Q72.9-22.85 72.12-25.28 71.35-27.7 69.82-29.43 68.3-31.15 66.05-32.1 63.8-33.05 60.85-33.05L60.85-33.05 54.1-33.05Z" opacity="1" transform="matrix(1,0,0,1,0,0)" fill="#374151" class="undefined-text-0" data-fill-palette-color="primary" id="text-0"></path></svg></g></svg></g></svg></g></svg></g></svg></g></svg></g></svg></g><g><path d="M0 123.6c0-68.262 55.338-123.6 123.6-123.6 42.329 0 79.689 21.278 101.965 53.722l-6.248 0c-21.557-29.478-56.401-48.624-95.717-48.624-65.447 0-118.502 53.055-118.502 118.502 0 65.447 53.055 118.502 118.502 118.502 39.316 0 74.16-19.147 95.717-48.624h6.248c-22.277 32.444-59.636 53.722-101.965 53.722-68.262 0-123.6-55.338-123.6-123.6z" fill="#374151" stroke="transparent" data-fill-palette-color="tertiary"></path></g></svg></g><defs></defs></svg><rect width="395.52" height="247.2" fill="none" stroke="none" visibility="hidden"></rect></g></svg></g></svg>